# xmcd
#
# Track frame offsets: 
#        150
#        32822
#        57090
#        81107
#        102353
#        123400
#        144359
#        164344
#        187232
#        207181
#
# Disc length: 3080 seconds
#
# Revision: 0
# Processed by: cddbd v1.5.2PL0 Copyright (c) Steve Scherf et al.
# Submitted via: ExactAudioCopy v1.0b4
#
DISCID=890c060a
DTITLE=小谷美紗子 - MONSTER
DYEAR=2016
DGENRE=JPop
TTITLE0=手紙
TTITLE1=Who
TTITLE2=Off you go
TTITLE3=自分
TTITLE4=嘆きの雪
TTITLE5=子供のような笑い声
TTITLE6=The Stone
TTITLE7=手の中
TTITLE8=こんな風にして終わるもの
TTITLE9=３月のこと
EXTD=
EXTT0=
EXTT1=
EXTT2=
EXTT3=
EXTT4=
EXTT5=
EXTT6=
EXTT7=
EXTT8=
EXTT9=
PLAYORDER=
